# xmcd
#
# Track frame offsets:
#	150
#	13866
#	29165
#	43018
#	56719
#	70797
#	85920
#	101302
#	117037
#	133111
#	146341
#	162675
#	175478
#	190763
#	206836
#	221429
#
# Disc length: 3136
#
# Revision: 1
# Processed by: cddbd v1.5.1PL0 Copyright (c) Steve Scherf et al.
# Submitted via: MAGIX_Freedb v0.9beta0
# Normalized: r0:DSETVAR1
#
DISCID=ee0c3e10
DTITLE=Various Artist - ORF Schlagerparade 2002 [CD1)
DYEAR=1900
DGENRE=
TTITLE0=G.G. Anderson - Dafür Leb Ich
TTITLE1=Schürzenjäger - Morgen Früh Bin Ich Bei Dir
TTITLE2=Die Paldauer - Ich Bin Da, Um Dich Zu Lieben
TTITLE3=Nockalm Quintett and Stefanie - Dort Auf Wolke Sieben
TTITLE4=Rosanna Rocci - Mit Dir Zusammensein
TTITLE5=Michael Morgan - Jenseits Vom Paradies
TTITLE6=Pe Werner - Ich Will Dir Am Herzen Liegen
TTITLE7=Andre Stade - Mehr Noch Mehr
TTITLE8=Leonard - Wenn's Dich Nicht Gäb
TTITLE9=Monika Martin and Daniel O'Donnell - Only Fantasy
TTITLE10=Andreas - Noch Einmal Mit Dir Leben
TTITLE11=Francine Jordi - Du, Für Immer Du
TTITLE12=Andy Borg - Tausche Alltagsgrau Gegen Himmelblau
TTITLE13=Wind - Kein Weg Zu Weit
TTITLE14=Chantal - Du Hast Mein Herz Entführt
TTITLE15=Petra Frey and Oliver Haidt - Trennen Uns Auch Meere
EXTD=
EXTT0=
EXTT1=
EXTT2=
EXTT3=
EXTT4=
EXTT5=
EXTT6=
EXTT7=
EXTT8=
EXTT9=
EXTT10=
EXTT11=
EXTT12=
EXTT13=
EXTT14=
EXTT15=
PLAYORDER=
